<svg id="Layer_1" data-name="Layer 1" xmlns="http://www.w3.org/2000/svg" viewBox="0 0 111.92 38.27"><title>cm</title><path d="M45.59,101.73l40.59.58a1.5,1.5,0,0,0,0-3l-40.59-.58a1.5,1.5,0,0,0,0,3Z" transform="translate(-44.14 -74.74)"/><path d="M117.15,83.24c-2.4-4-9.4-9.66-14.44-8.29C96.56,76.63,97,87.3,97.06,92.06c0,5,1.63,15,7.59,16.69,5.07,1.4,10.44-5.52,10.53-9.91,0-1.93-3-1.93-3,0a7,7,0,0,1-4.07,5.91c-2.23.9-4.48-.65-5.82-2.67-2.19-3.29-2.32-8-2.2-11.76.13-4.06-.34-13,6.39-11.81,3,.51,6.64,3.84,8.08,6.25a1.5,1.5,0,0,0,2.59-1.52Z" transform="translate(-44.14 -74.74)"/><path d="M123.31,77.54q.3,15.87-.57,31.71c-.1,1.93,2.9,1.93,3,0q.87-15.84.57-31.71c0-1.93-3-1.93-3,0Z" transform="translate(-44.14 -74.74)"/><path d="M124.34,78.8c4,4.33,4.29,10.65,8.75,14.66a1.52,1.52,0,0,0,2.51-.66Q138,85.66,140,78.42l-2.94-.4c.93,11.21,3.65,22.24,3.18,33.54-.08,1.93,2.92,1.93,3,0,.47-11.31-2.25-22.32-3.18-33.54a1.51,1.51,0,0,0-2.95-.4Q135.07,84.87,132.7,92l2.51-.67c-4.37-3.93-4.79-10.34-8.74-14.66-1.31-1.43-3.43.7-2.13,2.12Z" transform="translate(-44.14 -74.74)"/><path d="M154.61,106.49a1.5,1.5,0,0,0,0-3,1.5,1.5,0,0,0,0,3Z" transform="translate(-44.14 -74.74)"/></svg>
