<?xml version="1.0" encoding="utf-8"?>
<!-- Generator: Adobe Illustrator 22.0.1, SVG Export Plug-In . SVG Version: 6.00 Build 0)  -->
<svg version="1.1" id="Layer_1" xmlns="http://www.w3.org/2000/svg" xmlns:xlink="http://www.w3.org/1999/xlink" x="0px" y="0px"
	 viewBox="0 0 700 600" style="enable-background:new 0 0 700 600;" xml:space="preserve">
<style type="text/css">
	.st0{fill:none;stroke:#000000;stroke-miterlimit:10;}
	.st1{font-family:'MyriadPro-Regular';}
	.st2{font-size:12px;}
	.st3{fill:none;stroke:#000000;stroke-width:2;stroke-miterlimit:10;}
	.st4{fill:#740848;stroke:#000000;stroke-width:1.0696;stroke-miterlimit:10;}
	.st5{fill:#740848;stroke:#000000;stroke-width:0.8257;stroke-miterlimit:10;}
	.st6{fill:#740848;stroke:#000000;stroke-width:0.6936;stroke-miterlimit:10;}
	.st7{fill:#740848;stroke:#000000;stroke-width:0.4374;stroke-miterlimit:10;}
</style>
<g>
	<line class="st0" x1="101.5" y1="112.5" x2="101.5" y2="456.5"/>
</g>
<line class="st0" x1="101.5" y1="455.5" x2="616.5" y2="455.5"/>
<g>
	<path d="M99,113.1c0.8-1.5,1.5-3,2.2-4.6c0.4,0.2,0.5,0.8,0.7,1.3c0.1,0.4,0.4,0.7,0.6,1.1c0.4,0.7,0.8,1.4,1.1,2.1"/>
	<g>
		<path d="M100.3,113.8c0.8-1.5,1.5-3,2.2-4.6c-0.8,0.1-1.6,0.2-2.4,0.3c0.2,0.1,0.2,0.4,0.3,0.7c0.2,0.5,0.4,0.9,0.7,1.3
			c0.5,0.7,0.9,1.5,1.2,2.3c0.3,0.7,1.4,0.9,2.1,0.5c0.8-0.5,0.9-1.3,0.5-2.1c-0.4-0.9-0.9-1.7-1.4-2.5c-0.5-0.8-0.5-1.7-1.3-2.3
			c-0.7-0.5-1.9-0.7-2.4,0.3c-0.7,1.5-1.4,3.1-2.2,4.6C96.9,114,99.5,115.6,100.3,113.8L100.3,113.8z"/>
	</g>
</g>
<g>
	<path d="M616.2,453.4c1.5,0.8,3,1.6,4.5,2.4c-0.3,0.4-0.9,0.4-1.3,0.6c-0.4,0.1-0.8,0.4-1.1,0.6c-0.7,0.4-1.4,0.8-2.2,1"/>
	<g>
		<path d="M615.4,454.7c1.5,0.8,3,1.6,4.5,2.4c-0.1-0.8-0.2-1.6-0.3-2.4c-0.2,0.2-1.3,0.5-1.8,0.7c-0.7,0.4-1.5,0.8-2.3,1.1
			c-1.8,0.7-1,3.6,0.8,2.9c1-0.4,2-0.9,3-1.4c0.8-0.4,1.7-0.4,2.4-1.2c0.6-0.7,0.6-1.9-0.3-2.4c-1.5-0.8-3-1.6-4.5-2.4
			C615.2,451.1,613.7,453.7,615.4,454.7L615.4,454.7z"/>
	</g>
</g>
<text transform="matrix(1 0 0 1 33.3726 157.0254)" class="st1 st2">Advanced</text>
<text transform="matrix(1 0 0 1 21.3726 278.0254)" class="st1 st2">Intermediate</text>
<text transform="matrix(1 0 0 1 33.3726 408.0254)" class="st1 st2">Beginner</text>
<line class="st3" x1="98" y1="404" x2="106" y2="404"/>
<line class="st3" x1="98" y1="275" x2="106" y2="275"/>
<line class="st3" x1="98" y1="154" x2="106" y2="154"/>
<text transform="matrix(1 0 0 1 126.9087 493.7061)" class="st1 st2">HTML/CSS</text>
<text transform="matrix(1 0 0 1 205.4946 493.5635)" class="st1 st2">Javascript</text>
<text transform="matrix(1 0 0 1 285.5171 494.0596)" class="st1 st2">Photoshop</text>
<text transform="matrix(1 0 0 1 366.9771 494.3037)" class="st1 st2">Illustrator</text>
<text transform="matrix(1 0 0 1 434.5195 494.9541)" class="st1 st2">SASS</text>
<text transform="matrix(1 0 0 1 487.7598 495.9268)" class="st1 st2">Unity</text>
<text transform="matrix(1 0 0 1 546.1338 498.1436)" class="st1 st2">PHP</text>
<line class="st3" x1="149" y1="453" x2="149" y2="458"/>
<line class="st3" x1="229" y1="453" x2="229" y2="458"/>
<line class="st3" x1="310" y1="453" x2="310" y2="458"/>
<line class="st3" x1="385" y1="453" x2="385" y2="458"/>
<line class="st3" x1="444" y1="453" x2="444" y2="458"/>
<line class="st3" x1="499" y1="453" x2="499" y2="458"/>
<line class="st3" x1="555" y1="453" x2="555" y2="458"/>
<rect x="130.5" y="153.5" class="st4" width="36" height="302"/>
<rect x="210.5" y="274.5" class="st5" width="36" height="180"/>
<rect x="292.5" y="329.5" class="st6" width="36" height="127"/>
<rect x="366.5" y="275.5" class="st5" width="36" height="180"/>
<rect x="426.5" y="275.5" class="st5" width="36" height="180"/>
<rect x="480.5" y="404" class="st7" width="36" height="50.5"/>
<rect x="535.5" y="404" class="st7" width="36" height="50.5"/>
</svg>
