<svg id="Layer_1" xmlns="http://www.w3.org/2000/svg" viewBox="0 0 200 200"><style>.st0{fill:#9e005d}</style><path class="st0" d="M54.7 83.7c4.7 4 9.4 8.1 14.1 12.1 2.3 2 6.3 7.1 9.7 7.3 3.3.1 6-4.1 8-6.1 4.5-4.5 8.9-9.1 13.4-13.6 1.4-1.4-.8-3.5-2.1-2.1-3.1 3.2-6.2 6.3-9.4 9.5-1.3 1.4-2.7 2.7-4 4.1-2.1 2.1-3 4.3-6.1 3.7-4.1-.8-7.8-5.3-11-8.1l-10.4-8.9c-1.6-1.3-3.7.8-2.2 2.1z"/><path class="st0" d="M55.7 94.7c4.7 4 9.4 8.1 14.1 12.1 2.3 2 6.3 7.1 9.7 7.3 3.3.1 6-4.1 8-6.1 4.5-4.5 8.9-9.1 13.4-13.6 1.4-1.4-.8-3.5-2.1-2.1-3.1 3.2-6.2 6.3-9.4 9.5-1.3 1.4-2.7 2.7-4 4.1-2.1 2.1-3 4.3-6.1 3.7-4.1-.8-7.8-5.3-11-8.1l-10.4-8.9c-1.6-1.3-3.7.8-2.2 2.1z"/></svg>
