<svg id="Layer_2" data-name="Layer 2" xmlns="http://www.w3.org/2000/svg" viewBox="0 0 48.69 50.16"><defs><style>.cls-1{fill:#fff;}.cls-2{fill:#9e005d;}</style></defs><title>coding_svg</title><path class="cls-1" d="M53,27.25A24.49,24.49,0,0,1,72.47,62.67c-.21.42-.52.89-1,.92s-.74-.81-.27-.89c-.89,2.49-3.16,4.17-5.3,5.71l-5.42,3.88a12.56,12.56,0,0,1-3,1.74,12.14,12.14,0,0,1-3.23.54L48.49,75a8.28,8.28,0,0,1-2.81-.09c-2.33-.64-3.62-3.11-5.58-4.53-1.58-1.15-3.58-1.6-5.21-2.67-3.47-2.29-4.54-6.81-5.34-10.89s-1.6-8.62-.07-12.59a24.06,24.06,0,0,0,1.63-4.19,13.69,13.69,0,0,1,.43-2.56,6.33,6.33,0,0,1,2.69-2.78,96.75,96.75,0,0,1,9.55-5.58c3.27-1.67,7.3-3.13,10.47-1.27" transform="translate(-27.48 -26.04)"/><path class="cls-2" d="M53,28.37a24.16,24.16,0,0,1,18.11,12A23.22,23.22,0,0,1,73.92,52a23.87,23.87,0,0,1-.65,5.19,18.45,18.45,0,0,1-.65,2.28q-2.1,2-.44,3.81c.57-1.3-1.33-2.46-2-1.14C67,69,57.31,73.26,50.42,73.76c-4.61.33-6.11-1.63-9.53-4.15-3.09-2.28-6.38-2.66-8.31-6.48a26.22,26.22,0,0,1-.87-21.2c1-2.29.27-1.43,1.81-4,1.42-2.43,2.81-3.22,5.18-4.63,4.16-2.48,9.92-6.57,15-4.4,1.31.57,2.46-1.37,1.13-1.94-4.1-1.76-7.71-.62-11.61,1.27-3.64,1.77-9.6,4.23-12,7.65-1.36,2-1.69,5-2.41,7.17a20.14,20.14,0,0,0-1.32,5.89,36.8,36.8,0,0,0,2.65,14.37c1.75,4.2,4.41,5.26,8.14,7.37s4.87,5.54,9.51,5.57c5.69,0,10-.64,14.62-3.91,3.59-2.55,7.83-4.89,9.77-9l-2-1.14-.21.48A1.18,1.18,0,0,0,70.2,64l.49.4a1.17,1.17,0,0,0,1.36.18c2.76-1.44,3.52-6.71,3.88-9.41a26,26,0,0,0-1.86-13.76C70.35,32.76,62.15,27.31,53,26.12c-1.43-.19-1.42,2.07,0,2.25Z" transform="translate(-27.48 -26.04)"/><path class="cls-1" d="M44,43.25a33.66,33.66,0,0,0-4.82,5.09,27.57,27.57,0,0,0,4,5.69" transform="translate(-27.48 -26.04)"/><path class="cls-2" d="M43.49,42.72a37.43,37.43,0,0,0-4.82,5.09.79.79,0,0,0-.11.91,31.26,31.26,0,0,0,4.12,5.84c.64.72,1.7-.34,1.06-1.06A29.23,29.23,0,0,1,39.85,48l-.12.91a38.05,38.05,0,0,1,4.82-5.09c.72-.64-.34-1.7-1.06-1.06Z" transform="translate(-27.48 -26.04)"/><path class="cls-1" d="M49.23,57.91,55.14,40.3" transform="translate(-27.48 -26.04)"/><path class="cls-2" d="M50,58.11l5.9-17.61c.31-.91-1.14-1.31-1.45-.39l-5.9,17.6c-.31.91,1.14,1.31,1.45.4Z" transform="translate(-27.48 -26.04)"/><path class="cls-1" d="M58.31,56.07A33.09,33.09,0,0,0,63,50.89a27.52,27.52,0,0,0-4.11-5.61" transform="translate(-27.48 -26.04)"/><path class="cls-2" d="M58.84,56.6a39.41,39.41,0,0,0,4.83-5.33.72.72,0,0,0,0-.75,30.68,30.68,0,0,0-4.23-5.77c-.66-.71-1.72.35-1.06,1.06a30.2,30.2,0,0,1,2.12,2.53c.34.45,1.54,1.75,1.53,2.33,0,.86-1.48,2.1-2,2.69-.71.76-1.46,1.48-2.23,2.18s.35,1.71,1.07,1.06Z" transform="translate(-27.48 -26.04)"/></svg>
